<?xml version="1.0" encoding="UTF-8" standalone="no"?>
<!DOCTYPE svg PUBLIC "-//W3C//DTD SVG 1.1//EN"
 "http://www.w3.org/Graphics/SVG/1.1/DTD/svg11.dtd">
<!-- Generated by graphviz version 2.38.0 (20140413.2041)
 -->
<!-- Title: G Pages: 1 -->
<svg width="777pt" height="2119pt"
 viewBox="0.00 0.00 777.32 2119.00" xmlns="http://www.w3.org/2000/svg" xmlns:xlink="http://www.w3.org/1999/xlink">
<g id="graph0" class="graph" transform="scale(1 1) rotate(0) translate(4 2115)">
<title>G</title>
<polygon fill="white" stroke="none" points="-4,4 -4,-2115 773.316,-2115 773.316,4 -4,4"/>
<g id="clust1" class="cluster"><title>cluster_Global</title>
<path fill="none" stroke="gray" d="M20,-44C20,-44 749.316,-44 749.316,-44 755.316,-44 761.316,-50 761.316,-56 761.316,-56 761.316,-2091 761.316,-2091 761.316,-2097 755.316,-2103 749.316,-2103 749.316,-2103 20,-2103 20,-2103 14,-2103 8,-2097 8,-2091 8,-2091 8,-56 8,-56 8,-50 14,-44 20,-44"/>
<text text-anchor="middle" x="384.658" y="-2090.2" font-family="Times,serif" font-size="11.00" fill="gray">Global</text>
</g>
<g id="clust2" class="cluster"><title>cluster_\Prismic</title>
<path fill="none" stroke="gray" d="M28,-52C28,-52 741.316,-52 741.316,-52 747.316,-52 753.316,-58 753.316,-64 753.316,-64 753.316,-2064 753.316,-2064 753.316,-2070 747.316,-2076 741.316,-2076 741.316,-2076 28,-2076 28,-2076 22,-2076 16,-2070 16,-2064 16,-2064 16,-64 16,-64 16,-58 22,-52 28,-52"/>
<text text-anchor="middle" x="384.658" y="-2063.2" font-family="Times,serif" font-size="11.00" fill="gray">Prismic</text>
</g>
<g id="clust3" class="cluster"><title>cluster_\Prismic\Fragment</title>
<path fill="none" stroke="gray" d="M36,-887C36,-887 733.316,-887 733.316,-887 739.316,-887 745.316,-893 745.316,-899 745.316,-899 745.316,-1993 745.316,-1993 745.316,-1999 739.316,-2005 733.316,-2005 733.316,-2005 36,-2005 36,-2005 30,-2005 24,-1999 24,-1993 24,-1993 24,-899 24,-899 24,-893 30,-887 36,-887"/>
<text text-anchor="middle" x="384.658" y="-1992.2" font-family="Times,serif" font-size="11.00" fill="gray">Fragment</text>
</g>
<g id="clust4" class="cluster"><title>cluster_\Prismic\Fragment\Block</title>
<path fill="none" stroke="gray" d="M236.218,-1745C236.218,-1745 725.316,-1745 725.316,-1745 731.316,-1745 737.316,-1751 737.316,-1757 737.316,-1757 737.316,-1966 737.316,-1966 737.316,-1972 731.316,-1978 725.316,-1978 725.316,-1978 236.218,-1978 236.218,-1978 230.218,-1978 224.218,-1972 224.218,-1966 224.218,-1966 224.218,-1757 224.218,-1757 224.218,-1751 230.218,-1745 236.218,-1745"/>
<text text-anchor="middle" x="480.767" y="-1965.2" font-family="Times,serif" font-size="11.00" fill="gray">Block</text>
</g>
<g id="clust5" class="cluster"><title>cluster_\Prismic\Fragment\Span</title>
<path fill="none" stroke="gray" d="M423.958,-1504C423.958,-1504 712.113,-1504 712.113,-1504 718.113,-1504 724.113,-1510 724.113,-1516 724.113,-1516 724.113,-1725 724.113,-1725 724.113,-1731 718.113,-1737 712.113,-1737 712.113,-1737 423.958,-1737 423.958,-1737 417.958,-1737 411.958,-1731 411.958,-1725 411.958,-1725 411.958,-1516 411.958,-1516 411.958,-1510 417.958,-1504 423.958,-1504"/>
<text text-anchor="middle" x="568.036" y="-1724.2" font-family="Times,serif" font-size="11.00" fill="gray">Span</text>
</g>
<g id="clust6" class="cluster"><title>cluster_\Prismic\Fragment\Link</title>
<path fill="none" stroke="gray" d="M239.519,-1317C239.519,-1317 698.911,-1317 698.911,-1317 704.911,-1317 710.911,-1323 710.911,-1329 710.911,-1329 710.911,-1484 710.911,-1484 710.911,-1490 704.911,-1496 698.911,-1496 698.911,-1496 239.519,-1496 239.519,-1496 233.519,-1496 227.519,-1490 227.519,-1484 227.519,-1484 227.519,-1329 227.519,-1329 227.519,-1323 233.519,-1317 239.519,-1317"/>
<text text-anchor="middle" x="469.215" y="-1483.2" font-family="Times,serif" font-size="11.00" fill="gray">Link</text>
</g>
<g id="clust7" class="cluster"><title>cluster_\Prismic\Cache</title>
<path fill="none" stroke="gray" d="M420.658,-754C420.658,-754 708.813,-754 708.813,-754 714.813,-754 720.813,-760 720.813,-766 720.813,-766 720.813,-867 720.813,-867 720.813,-873 714.813,-879 708.813,-879 708.813,-879 420.658,-879 420.658,-879 414.658,-879 408.658,-873 408.658,-867 408.658,-867 408.658,-766 408.658,-766 408.658,-760 414.658,-754 420.658,-754"/>
<text text-anchor="middle" x="564.735" y="-866.2" font-family="Times,serif" font-size="11.00" fill="gray">Cache</text>
</g>
<!-- \\Prismic\\Fragment\\Block\\PreformattedBlock -->
<g id="node1" class="node"><title>\\Prismic\\Fragment\\Block\\PreformattedBlock</title>
<polygon fill="none" stroke="black" points="729.425,-1951 600.988,-1951 600.988,-1915 729.425,-1915 729.425,-1951"/>
<text text-anchor="middle" x="665.206" y="-1929.7" font-family="Courier,monospace" font-size="11.00">PreformattedBlock</text>
</g>
<!-- \\Prismic\\Fragment\\Block\\TextInterface -->
<g id="node8" class="node"><title>\\Prismic\\Fragment\\Block\\TextInterface</title>
<polygon fill="none" stroke="black" points="521.679,-1843 420.051,-1843 420.051,-1807 521.679,-1807 521.679,-1843"/>
<text text-anchor="middle" x="470.865" y="-1821.7" font-family="Courier,monospace" font-size="11.00">TextInterface</text>
</g>
<!-- \\Prismic\\Fragment\\Block\\PreformattedBlock&#45;&gt;\\Prismic\\Fragment\\Block\\TextInterface -->
<g id="edge1" class="edge"><title>\\Prismic\\Fragment\\Block\\PreformattedBlock&#45;&gt;\\Prismic\\Fragment\\Block\\TextInterface</title>
<path fill="none" stroke="black" stroke-dasharray="1,5" d="M618.409,-1914.95C612.476,-1912.17 606.566,-1909.16 601.097,-1906 566.462,-1885.99 563.361,-1872.64 529.097,-1852 526.671,-1850.54 524.153,-1849.1 521.586,-1847.69"/>
<polygon fill="none" stroke="black" points="523.214,-1844.59 512.735,-1843.03 519.955,-1850.78 523.214,-1844.59"/>
</g>
<!-- \\Prismic\\Fragment\\Block\\EmbedBlock -->
<g id="node2" class="node"><title>\\Prismic\\Fragment\\Block\\EmbedBlock</title>
<polygon fill="none" stroke="black" points="511.876,-1951 429.855,-1951 429.855,-1915 511.876,-1915 511.876,-1951"/>
<text text-anchor="middle" x="470.865" y="-1929.7" font-family="Courier,monospace" font-size="11.00">EmbedBlock</text>
</g>
<!-- \\Prismic\\Fragment\\Block\\BlockInterface -->
<g id="node7" class="node"><title>\\Prismic\\Fragment\\Block\\BlockInterface</title>
<polygon fill="none" stroke="black" points="340.842,-1897 232.01,-1897 232.01,-1861 340.842,-1861 340.842,-1897"/>
<text text-anchor="middle" x="286.426" y="-1875.7" font-family="Courier,monospace" font-size="11.00">BlockInterface</text>
</g>
<!-- \\Prismic\\Fragment\\Block\\EmbedBlock&#45;&gt;\\Prismic\\Fragment\\Block\\BlockInterface -->
<g id="edge2" class="edge"><title>\\Prismic\\Fragment\\Block\\EmbedBlock&#45;&gt;\\Prismic\\Fragment\\Block\\BlockInterface</title>
<path fill="none" stroke="black" stroke-dasharray="1,5" d="M429.828,-1921.15C406.669,-1914.29 377.002,-1905.51 350.747,-1897.74"/>
<polygon fill="none" stroke="black" points="351.455,-1894.3 340.872,-1894.82 349.468,-1901.01 351.455,-1894.3"/>
</g>
<!-- \\Prismic\\Fragment\\Block\\ImageBlock -->
<g id="node3" class="node"><title>\\Prismic\\Fragment\\Block\\ImageBlock</title>
<polygon fill="none" stroke="black" points="511.876,-1897 429.855,-1897 429.855,-1861 511.876,-1861 511.876,-1897"/>
<text text-anchor="middle" x="470.865" y="-1875.7" font-family="Courier,monospace" font-size="11.00">ImageBlock</text>
</g>
<!-- \\Prismic\\Fragment\\Block\\ImageBlock&#45;&gt;\\Prismic\\Fragment\\Block\\BlockInterface -->
<g id="edge4" class="edge"><title>\\Prismic\\Fragment\\Block\\ImageBlock&#45;&gt;\\Prismic\\Fragment\\Block\\BlockInterface</title>
<path fill="none" stroke="black" stroke-dasharray="1,5" d="M429.828,-1879C406.771,-1879 377.263,-1879 351.094,-1879"/>
<polygon fill="none" stroke="black" points="350.872,-1875.5 340.872,-1879 350.872,-1882.5 350.872,-1875.5"/>
</g>
<!-- \\Prismic\\Fragment\\Block\\HeadingBlock -->
<g id="node4" class="node"><title>\\Prismic\\Fragment\\Block\\HeadingBlock</title>
<polygon fill="none" stroke="black" points="712.92,-1897 617.493,-1897 617.493,-1861 712.92,-1861 712.92,-1897"/>
<text text-anchor="middle" x="665.206" y="-1875.7" font-family="Courier,monospace" font-size="11.00">HeadingBlock</text>
</g>
<!-- \\Prismic\\Fragment\\Block\\HeadingBlock&#45;&gt;\\Prismic\\Fragment\\Block\\TextInterface -->
<g id="edge15" class="edge"><title>\\Prismic\\Fragment\\Block\\HeadingBlock&#45;&gt;\\Prismic\\Fragment\\Block\\TextInterface</title>
<path fill="none" stroke="black" stroke-dasharray="1,5" d="M617.155,-1865.79C591.401,-1858.56 559.224,-1849.53 531.702,-1841.8"/>
<polygon fill="none" stroke="black" points="532.367,-1838.35 521.793,-1839.02 530.475,-1845.09 532.367,-1838.35"/>
</g>
<!-- \\Prismic\\Fragment\\Block\\ListItemBlock -->
<g id="node5" class="node"><title>\\Prismic\\Fragment\\Block\\ListItemBlock</title>
<polygon fill="none" stroke="black" points="716.021,-1843 614.392,-1843 614.392,-1807 716.021,-1807 716.021,-1843"/>
<text text-anchor="middle" x="665.206" y="-1821.7" font-family="Courier,monospace" font-size="11.00">ListItemBlock</text>
</g>
<!-- \\Prismic\\Fragment\\Block\\ListItemBlock&#45;&gt;\\Prismic\\Fragment\\Block\\TextInterface -->
<g id="edge16" class="edge"><title>\\Prismic\\Fragment\\Block\\ListItemBlock&#45;&gt;\\Prismic\\Fragment\\Block\\TextInterface</title>
<path fill="none" stroke="black" stroke-dasharray="1,5" d="M614.173,-1825C589.116,-1825 558.582,-1825 532.232,-1825"/>
<polygon fill="none" stroke="black" points="531.982,-1821.5 521.982,-1825 531.982,-1828.5 531.982,-1821.5"/>
</g>
<!-- \\Prismic\\Fragment\\Block\\ParagraphBlock -->
<g id="node6" class="node"><title>\\Prismic\\Fragment\\Block\\ParagraphBlock</title>
<polygon fill="none" stroke="black" points="719.622,-1789 610.791,-1789 610.791,-1753 719.622,-1753 719.622,-1789"/>
<text text-anchor="middle" x="665.206" y="-1767.7" font-family="Courier,monospace" font-size="11.00">ParagraphBlock</text>
</g>
<!-- \\Prismic\\Fragment\\Block\\ParagraphBlock&#45;&gt;\\Prismic\\Fragment\\Block\\TextInterface -->
<g id="edge26" class="edge"><title>\\Prismic\\Fragment\\Block\\ParagraphBlock&#45;&gt;\\Prismic\\Fragment\\Block\\TextInterface</title>
<path fill="none" stroke="black" stroke-dasharray="1,5" d="M610.884,-1785.97C586.347,-1792.86 557.132,-1801.06 531.832,-1808.16"/>
<polygon fill="none" stroke="black" points="530.666,-1804.86 521.984,-1810.93 532.558,-1811.6 530.666,-1804.86"/>
</g>
<!-- \\Prismic\\Fragment\\Block\\TextInterface&#45;&gt;\\Prismic\\Fragment\\Block\\BlockInterface -->
<g id="edge32" class="edge"><title>\\Prismic\\Fragment\\Block\\TextInterface&#45;&gt;\\Prismic\\Fragment\\Block\\BlockInterface</title>
<path fill="none" stroke="black" d="M420.013,-1839.76C398.6,-1846.09 373.328,-1853.57 350.622,-1860.29"/>
<polygon fill="none" stroke="black" points="349.327,-1857.03 340.731,-1863.22 351.314,-1863.74 349.327,-1857.03"/>
</g>
<!-- \\Prismic\\Fragment\\Span\\HyperlinkSpan -->
<g id="node9" class="node"><title>\\Prismic\\Fragment\\Span\\HyperlinkSpan</title>
<polygon fill="none" stroke="black" points="716.021,-1710 614.392,-1710 614.392,-1674 716.021,-1674 716.021,-1710"/>
<text text-anchor="middle" x="665.206" y="-1688.7" font-family="Courier,monospace" font-size="11.00">HyperlinkSpan</text>
</g>
<!-- \\Prismic\\Fragment\\Span\\SpanInterface -->
<g id="node13" class="node"><title>\\Prismic\\Fragment\\Span\\SpanInterface</title>
<polygon fill="none" stroke="black" points="521.679,-1629 420.051,-1629 420.051,-1593 521.679,-1593 521.679,-1629"/>
<text text-anchor="middle" x="470.865" y="-1607.7" font-family="Courier,monospace" font-size="11.00">SpanInterface</text>
</g>
<!-- \\Prismic\\Fragment\\Span\\HyperlinkSpan&#45;&gt;\\Prismic\\Fragment\\Span\\SpanInterface -->
<g id="edge3" class="edge"><title>\\Prismic\\Fragment\\Span\\HyperlinkSpan&#45;&gt;\\Prismic\\Fragment\\Span\\SpanInterface</title>
<path fill="none" stroke="black" stroke-dasharray="1,5" d="M621.041,-1673.82C592.458,-1661.78 554.789,-1645.92 524.456,-1633.15"/>
<polygon fill="none" stroke="black" points="525.461,-1629.77 514.886,-1629.12 522.744,-1636.22 525.461,-1629.77"/>
</g>
<!-- \\Prismic\\Fragment\\Span\\EmSpan -->
<g id="node10" class="node"><title>\\Prismic\\Fragment\\Span\\EmSpan</title>
<polygon fill="none" stroke="black" points="692.814,-1656 637.599,-1656 637.599,-1620 692.814,-1620 692.814,-1656"/>
<text text-anchor="middle" x="665.206" y="-1634.7" font-family="Courier,monospace" font-size="11.00">EmSpan</text>
</g>
<!-- \\Prismic\\Fragment\\Span\\EmSpan&#45;&gt;\\Prismic\\Fragment\\Span\\SpanInterface -->
<g id="edge6" class="edge"><title>\\Prismic\\Fragment\\Span\\EmSpan&#45;&gt;\\Prismic\\Fragment\\Span\\SpanInterface</title>
<path fill="none" stroke="black" stroke-dasharray="1,5" d="M637.462,-1634.25C610.311,-1630.43 567.351,-1624.4 531.992,-1619.44"/>
<polygon fill="none" stroke="black" points="532.155,-1615.93 521.765,-1618 531.182,-1622.86 532.155,-1615.93"/>
</g>
<!-- \\Prismic\\Fragment\\Span\\LabelSpan -->
<g id="node11" class="node"><title>\\Prismic\\Fragment\\Span\\LabelSpan</title>
<polygon fill="none" stroke="black" points="703.117,-1602 627.296,-1602 627.296,-1566 703.117,-1566 703.117,-1602"/>
<text text-anchor="middle" x="665.206" y="-1580.7" font-family="Courier,monospace" font-size="11.00">LabelSpan</text>
</g>
<!-- \\Prismic\\Fragment\\Span\\LabelSpan&#45;&gt;\\Prismic\\Fragment\\Span\\SpanInterface -->
<g id="edge21" class="edge"><title>\\Prismic\\Fragment\\Span\\LabelSpan&#45;&gt;\\Prismic\\Fragment\\Span\\SpanInterface</title>
<path fill="none" stroke="black" stroke-dasharray="1,5" d="M627.121,-1589.21C600.248,-1592.98 563.325,-1598.16 532.229,-1602.53"/>
<polygon fill="none" stroke="black" points="531.346,-1599.12 521.93,-1603.97 532.319,-1606.05 531.346,-1599.12"/>
</g>
<!-- \\Prismic\\Fragment\\Span\\StrongSpan -->
<g id="node12" class="node"><title>\\Prismic\\Fragment\\Span\\StrongSpan</title>
<polygon fill="none" stroke="black" points="706.217,-1548 624.196,-1548 624.196,-1512 706.217,-1512 706.217,-1548"/>
<text text-anchor="middle" x="665.206" y="-1526.7" font-family="Courier,monospace" font-size="11.00">StrongSpan</text>
</g>
<!-- \\Prismic\\Fragment\\Span\\StrongSpan&#45;&gt;\\Prismic\\Fragment\\Span\\SpanInterface -->
<g id="edge22" class="edge"><title>\\Prismic\\Fragment\\Span\\StrongSpan&#45;&gt;\\Prismic\\Fragment\\Span\\SpanInterface</title>
<path fill="none" stroke="black" stroke-dasharray="1,5" d="M623.885,-1546.98C594.935,-1559.17 555.65,-1575.72 524.269,-1588.93"/>
<polygon fill="none" stroke="black" points="522.662,-1585.81 514.804,-1592.92 525.379,-1592.26 522.662,-1585.81"/>
</g>
<!-- \\Prismic\\Fragment\\Link\\WebLink -->
<g id="node14" class="node"><title>\\Prismic\\Fragment\\Link\\WebLink</title>
<polygon fill="none" stroke="black" points="502.073,-1415 439.657,-1415 439.657,-1379 502.073,-1379 502.073,-1415"/>
<text text-anchor="middle" x="470.865" y="-1393.7" font-family="Courier,monospace" font-size="11.00">WebLink</text>
</g>
<!-- \\Prismic\\Fragment\\Link\\LinkInterface -->
<g id="node18" class="node"><title>\\Prismic\\Fragment\\Link\\LinkInterface</title>
<polygon fill="none" stroke="black" points="337.24,-1389 235.612,-1389 235.612,-1353 337.24,-1353 337.24,-1389"/>
<text text-anchor="middle" x="286.426" y="-1367.7" font-family="Courier,monospace" font-size="11.00">LinkInterface</text>
</g>
<!-- \\Prismic\\Fragment\\Link\\WebLink&#45;&gt;\\Prismic\\Fragment\\Link\\LinkInterface -->
<g id="edge12" class="edge"><title>\\Prismic\\Fragment\\Link\\WebLink&#45;&gt;\\Prismic\\Fragment\\Link\\LinkInterface</title>
<path fill="none" stroke="black" stroke-dasharray="1,5" d="M439.739,-1392.71C414.825,-1389.16 378.658,-1384 347.818,-1379.61"/>
<polygon fill="none" stroke="black" points="347.981,-1376.09 337.587,-1378.15 346.994,-1383.02 347.981,-1376.09"/>
</g>
<!-- \\Prismic\\Fragment\\Link\\ImageLink -->
<g id="node15" class="node"><title>\\Prismic\\Fragment\\Link\\ImageLink</title>
<polygon fill="none" stroke="black" points="703.117,-1361 627.296,-1361 627.296,-1325 703.117,-1325 703.117,-1361"/>
<text text-anchor="middle" x="665.206" y="-1339.7" font-family="Courier,monospace" font-size="11.00">ImageLink</text>
</g>
<!-- \\Prismic\\Fragment\\Link\\FileLink -->
<g id="node16" class="node"><title>\\Prismic\\Fragment\\Link\\FileLink</title>
<polygon fill="none" stroke="black" points="505.174,-1361 436.556,-1361 436.556,-1325 505.174,-1325 505.174,-1361"/>
<text text-anchor="middle" x="470.865" y="-1339.7" font-family="Courier,monospace" font-size="11.00">FileLink</text>
</g>
<!-- \\Prismic\\Fragment\\Link\\ImageLink&#45;&gt;\\Prismic\\Fragment\\Link\\FileLink -->
<g id="edge18" class="edge"><title>\\Prismic\\Fragment\\Link\\ImageLink&#45;&gt;\\Prismic\\Fragment\\Link\\FileLink</title>
<path fill="none" stroke="black" d="M627.121,-1343C595.167,-1343 549.003,-1343 515.322,-1343"/>
<polygon fill="none" stroke="black" points="515.3,-1339.5 505.3,-1343 515.3,-1346.5 515.3,-1339.5"/>
</g>
<!-- \\Prismic\\Fragment\\Link\\FileLink&#45;&gt;\\Prismic\\Fragment\\Link\\LinkInterface -->
<g id="edge27" class="edge"><title>\\Prismic\\Fragment\\Link\\FileLink&#45;&gt;\\Prismic\\Fragment\\Link\\LinkInterface</title>
<path fill="none" stroke="black" stroke-dasharray="1,5" d="M436.403,-1348.14C411.65,-1351.93 377.258,-1357.21 347.754,-1361.74"/>
<polygon fill="none" stroke="black" points="346.899,-1358.33 337.546,-1363.31 347.961,-1365.25 346.899,-1358.33"/>
</g>
<!-- \\Prismic\\Fragment\\Link\\DocumentLink -->
<g id="node17" class="node"><title>\\Prismic\\Fragment\\Link\\DocumentLink</title>
<polygon fill="none" stroke="black" points="518.578,-1469 423.152,-1469 423.152,-1433 518.578,-1433 518.578,-1469"/>
<text text-anchor="middle" x="470.865" y="-1447.7" font-family="Courier,monospace" font-size="11.00">DocumentLink</text>
</g>
<!-- \\Prismic\\Fragment\\Link\\DocumentLink&#45;&gt;\\Prismic\\Fragment\\Link\\LinkInterface -->
<g id="edge29" class="edge"><title>\\Prismic\\Fragment\\Link\\DocumentLink&#45;&gt;\\Prismic\\Fragment\\Link\\LinkInterface</title>
<path fill="none" stroke="black" stroke-dasharray="1,5" d="M428.68,-1432.91C421.981,-1429.95 415.122,-1426.9 408.658,-1424 378.342,-1410.41 371.106,-1406.24 340.633,-1393 340.539,-1392.96 340.444,-1392.92 340.349,-1392.88"/>
<polygon fill="none" stroke="black" points="341.892,-1389.73 331.322,-1389.01 339.133,-1396.16 341.892,-1389.73"/>
</g>
<!-- \\Prismic\\WithFragments -->
<g id="node46" class="node"><title>\\Prismic\\WithFragments</title>
<polygon fill="none" stroke="black" points="337.24,-2049 235.612,-2049 235.612,-2013 337.24,-2013 337.24,-2049"/>
<text text-anchor="middle" x="286.426" y="-2027.7" font-family="Courier,monospace" font-size="11.00">WithFragments</text>
</g>
<!-- \\Prismic\\Fragment\\Link\\DocumentLink&#45;&gt;\\Prismic\\WithFragments -->
<g id="edge28" class="edge"><title>\\Prismic\\Fragment\\Link\\DocumentLink&#45;&gt;\\Prismic\\WithFragments</title>
<path fill="none" stroke="black" d="M438.488,-1469.07C427.303,-1477.11 415.734,-1487.58 408.658,-1500 301.543,-1687.97 441.184,-1790.44 340.633,-1982 336.004,-1990.82 329.136,-1998.88 321.861,-2005.8"/>
<polygon fill="none" stroke="black" points="319.065,-2003.6 313.894,-2012.85 323.703,-2008.84 319.065,-2003.6"/>
</g>
<!-- \\Prismic\\Fragment\\FragmentInterface -->
<g id="node33" class="node"><title>\\Prismic\\Fragment\\FragmentInterface</title>
<polygon fill="none" stroke="black" points="160.328,-1201 31.8907,-1201 31.8907,-1165 160.328,-1165 160.328,-1201"/>
<text text-anchor="middle" x="96.1091" y="-1179.7" font-family="Courier,monospace" font-size="11.00">FragmentInterface</text>
</g>
<!-- \\Prismic\\Fragment\\Link\\LinkInterface&#45;&gt;\\Prismic\\Fragment\\FragmentInterface -->
<g id="edge33" class="edge"><title>\\Prismic\\Fragment\\Link\\LinkInterface&#45;&gt;\\Prismic\\Fragment\\FragmentInterface</title>
<path fill="none" stroke="black" d="M235.4,-1355.82C231.467,-1353.8 227.682,-1351.53 224.218,-1349 172.569,-1311.25 131.789,-1246.79 111.393,-1210.3"/>
<polygon fill="none" stroke="black" points="114.295,-1208.31 106.42,-1201.23 108.157,-1211.68 114.295,-1208.31"/>
</g>
<!-- \\Prismic\\Fragment\\StructuredText -->
<g id="node19" class="node"><title>\\Prismic\\Fragment\\StructuredText</title>
<polygon fill="none" stroke="black" points="340.842,-1201 232.01,-1201 232.01,-1165 340.842,-1165 340.842,-1201"/>
<text text-anchor="middle" x="286.426" y="-1179.7" font-family="Courier,monospace" font-size="11.00">StructuredText</text>
</g>
<!-- \\Prismic\\Fragment\\StructuredText&#45;&gt;\\Prismic\\Fragment\\FragmentInterface -->
<g id="edge7" class="edge"><title>\\Prismic\\Fragment\\StructuredText&#45;&gt;\\Prismic\\Fragment\\FragmentInterface</title>
<path fill="none" stroke="black" stroke-dasharray="1,5" d="M232.217,-1183C213.143,-1183 191.284,-1183 170.787,-1183"/>
<polygon fill="none" stroke="black" points="170.534,-1179.5 160.534,-1183 170.534,-1186.5 170.534,-1179.5"/>
</g>
<!-- \\Prismic\\Fragment\\Text -->
<g id="node20" class="node"><title>\\Prismic\\Fragment\\Text</title>
<polygon fill="none" stroke="black" points="313.426,-1147 259.426,-1147 259.426,-1111 313.426,-1111 313.426,-1147"/>
<text text-anchor="middle" x="286.426" y="-1125.7" font-family="Courier,monospace" font-size="11.00">Text</text>
</g>
<!-- \\Prismic\\Fragment\\Text&#45;&gt;\\Prismic\\Fragment\\FragmentInterface -->
<g id="edge8" class="edge"><title>\\Prismic\\Fragment\\Text&#45;&gt;\\Prismic\\Fragment\\FragmentInterface</title>
<path fill="none" stroke="black" stroke-dasharray="1,5" d="M259.241,-1136.51C236.069,-1143.15 201.137,-1153.17 169.624,-1162.21"/>
<polygon fill="none" stroke="black" points="168.619,-1158.85 159.971,-1164.97 170.549,-1165.58 168.619,-1158.85"/>
</g>
<!-- \\Prismic\\Fragment\\GroupDoc -->
<g id="node21" class="node"><title>\\Prismic\\Fragment\\GroupDoc</title>
<polygon fill="none" stroke="black" points="699.515,-1293 630.898,-1293 630.898,-1257 699.515,-1257 699.515,-1293"/>
<text text-anchor="middle" x="665.206" y="-1271.7" font-family="Courier,monospace" font-size="11.00">GroupDoc</text>
</g>
<!-- \\Prismic\\Fragment\\GroupDoc&#45;&gt;\\Prismic\\WithFragments -->
<g id="edge9" class="edge"><title>\\Prismic\\Fragment\\GroupDoc&#45;&gt;\\Prismic\\WithFragments</title>
<path fill="none" stroke="black" d="M630.789,-1287.77C619.559,-1293.74 608.115,-1302 601.097,-1313 520.659,-1439.05 630.874,-1872.46 529.097,-1982 510.578,-2001.93 435.323,-1998.6 408.658,-2004 388.682,-2008.05 366.929,-2012.79 347.436,-2017.16"/>
<polygon fill="none" stroke="black" points="346.456,-2013.79 337.469,-2019.4 347.994,-2020.62 346.456,-2013.79"/>
</g>
<!-- \\ArrayAccess -->
<g id="node53" class="node"><title>\\ArrayAccess</title>
<ellipse fill="none" stroke="black" cx="470.865" cy="-18" rx="58.465" ry="18"/>
<text text-anchor="middle" x="470.865" y="-13.8" font-family="Times,serif" font-size="14.00" fill="gray">\ArrayAccess</text>
</g>
<!-- \\Prismic\\Fragment\\GroupDoc&#45;&gt;\\ArrayAccess -->
<g id="edge10" class="edge"><title>\\Prismic\\Fragment\\GroupDoc&#45;&gt;\\ArrayAccess</title>
<path fill="none" stroke="black" stroke-dasharray="1,5" d="M630.803,-1261.54C619.432,-1255.23 607.889,-1246.51 601.097,-1235 466.768,-1007.43 672.654,-269.87 529.097,-48 526.42,-43.8616 522.975,-40.2601 519.106,-37.133"/>
<polygon fill="none" stroke="black" points="520.906,-34.1234 510.677,-31.3606 516.95,-39.8988 520.906,-34.1234"/>
</g>
<!-- \\Prismic\\Fragment\\Timestamp -->
<g id="node22" class="node"><title>\\Prismic\\Fragment\\Timestamp</title>
<polygon fill="none" stroke="black" points="324.337,-1093 248.515,-1093 248.515,-1057 324.337,-1057 324.337,-1093"/>
<text text-anchor="middle" x="286.426" y="-1071.7" font-family="Courier,monospace" font-size="11.00">Timestamp</text>
</g>
<!-- \\Prismic\\Fragment\\Timestamp&#45;&gt;\\Prismic\\Fragment\\FragmentInterface -->
<g id="edge11" class="edge"><title>\\Prismic\\Fragment\\Timestamp&#45;&gt;\\Prismic\\Fragment\\FragmentInterface</title>
<path fill="none" stroke="black" stroke-dasharray="1,5" d="M248.418,-1090.24C240.332,-1093.87 231.898,-1097.89 224.218,-1102 191.817,-1119.34 156.711,-1142.03 131.62,-1158.99"/>
<polygon fill="none" stroke="black" points="129.483,-1156.21 123.184,-1164.73 133.421,-1161.99 129.483,-1156.21"/>
</g>
<!-- \\Prismic\\Fragment\\GeoPoint -->
<g id="node23" class="node"><title>\\Prismic\\Fragment\\GeoPoint</title>
<polygon fill="none" stroke="black" points="320.735,-1039 252.117,-1039 252.117,-1003 320.735,-1003 320.735,-1039"/>
<text text-anchor="middle" x="286.426" y="-1017.7" font-family="Courier,monospace" font-size="11.00">GeoPoint</text>
</g>
<!-- \\Prismic\\Fragment\\GeoPoint&#45;&gt;\\Prismic\\Fragment\\FragmentInterface -->
<g id="edge13" class="edge"><title>\\Prismic\\Fragment\\GeoPoint&#45;&gt;\\Prismic\\Fragment\\FragmentInterface</title>
<path fill="none" stroke="black" stroke-dasharray="1,5" d="M252.043,-1032.86C242.628,-1036.95 232.658,-1042.03 224.218,-1048 180.439,-1078.96 139.821,-1126.78 116.783,-1156.41"/>
<polygon fill="none" stroke="black" points="113.794,-1154.56 110.488,-1164.63 119.35,-1158.82 113.794,-1154.56"/>
</g>
<!-- \\Prismic\\Fragment\\ImageView -->
<g id="node24" class="node"><title>\\Prismic\\Fragment\\ImageView</title>
<polygon fill="none" stroke="black" points="703.117,-1226 627.296,-1226 627.296,-1190 703.117,-1190 703.117,-1226"/>
<text text-anchor="middle" x="665.206" y="-1204.7" font-family="Courier,monospace" font-size="11.00">ImageView</text>
</g>
<!-- \\Prismic\\Fragment\\Embed -->
<g id="node25" class="node"><title>\\Prismic\\Fragment\\Embed</title>
<polygon fill="none" stroke="black" points="313.426,-985 259.426,-985 259.426,-949 313.426,-949 313.426,-985"/>
<text text-anchor="middle" x="286.426" y="-963.7" font-family="Courier,monospace" font-size="11.00">Embed</text>
</g>
<!-- \\Prismic\\Fragment\\Embed&#45;&gt;\\Prismic\\Fragment\\FragmentInterface -->
<g id="edge17" class="edge"><title>\\Prismic\\Fragment\\Embed&#45;&gt;\\Prismic\\Fragment\\FragmentInterface</title>
<path fill="none" stroke="black" stroke-dasharray="1,5" d="M259.191,-974.86C247.618,-979.216 234.37,-985.5 224.218,-994 169.321,-1039.97 128.492,-1115.46 109.294,-1155.72"/>
<polygon fill="none" stroke="black" points="106.056,-1154.38 104.99,-1164.92 112.397,-1157.34 106.056,-1154.38"/>
</g>
<!-- \\Prismic\\Fragment\\Color -->
<g id="node26" class="node"><title>\\Prismic\\Fragment\\Color</title>
<polygon fill="none" stroke="black" points="313.426,-931 259.426,-931 259.426,-895 313.426,-895 313.426,-931"/>
<text text-anchor="middle" x="286.426" y="-909.7" font-family="Courier,monospace" font-size="11.00">Color</text>
</g>
<!-- \\Prismic\\Fragment\\Color&#45;&gt;\\Prismic\\Fragment\\FragmentInterface -->
<g id="edge20" class="edge"><title>\\Prismic\\Fragment\\Color&#45;&gt;\\Prismic\\Fragment\\FragmentInterface</title>
<path fill="none" stroke="black" stroke-dasharray="1,5" d="M259.358,-920.134C247.546,-924.389 234.056,-930.795 224.218,-940 158.167,-1001.8 120.147,-1105.71 104.93,-1155.19"/>
<polygon fill="none" stroke="black" points="101.542,-1154.3 102.027,-1164.88 108.248,-1156.31 101.542,-1154.3"/>
</g>
<!-- \\Prismic\\Fragment\\Group -->
<g id="node27" class="node"><title>\\Prismic\\Fragment\\Group</title>
<polygon fill="none" stroke="black" points="313.426,-1309 259.426,-1309 259.426,-1273 313.426,-1273 313.426,-1309"/>
<text text-anchor="middle" x="286.426" y="-1287.7" font-family="Courier,monospace" font-size="11.00">Group</text>
</g>
<!-- \\Prismic\\Fragment\\Group&#45;&gt;\\Prismic\\Fragment\\FragmentInterface -->
<g id="edge23" class="edge"><title>\\Prismic\\Fragment\\Group&#45;&gt;\\Prismic\\Fragment\\FragmentInterface</title>
<path fill="none" stroke="black" stroke-dasharray="1,5" d="M259.4,-1280.55C248.367,-1275.86 235.482,-1270.03 224.218,-1264 191.817,-1246.66 156.711,-1223.97 131.62,-1207.01"/>
<polygon fill="none" stroke="black" points="133.421,-1204.01 123.184,-1201.27 129.483,-1209.79 133.421,-1204.01"/>
</g>
<!-- \\Prismic\\Fragment\\Date -->
<g id="node28" class="node"><title>\\Prismic\\Fragment\\Date</title>
<polygon fill="none" stroke="black" points="313.426,-1255 259.426,-1255 259.426,-1219 313.426,-1219 313.426,-1255"/>
<text text-anchor="middle" x="286.426" y="-1233.7" font-family="Courier,monospace" font-size="11.00">Date</text>
</g>
<!-- \\Prismic\\Fragment\\Date&#45;&gt;\\Prismic\\Fragment\\FragmentInterface -->
<g id="edge24" class="edge"><title>\\Prismic\\Fragment\\Date&#45;&gt;\\Prismic\\Fragment\\FragmentInterface</title>
<path fill="none" stroke="black" stroke-dasharray="1,5" d="M259.241,-1229.49C236.069,-1222.85 201.137,-1212.83 169.624,-1203.79"/>
<polygon fill="none" stroke="black" points="170.549,-1200.42 159.971,-1201.03 168.619,-1207.15 170.549,-1200.42"/>
</g>
<!-- \\Prismic\\Fragment\\Image -->
<g id="node29" class="node"><title>\\Prismic\\Fragment\\Image</title>
<polygon fill="none" stroke="black" points="313.426,-1594 259.426,-1594 259.426,-1558 313.426,-1558 313.426,-1594"/>
<text text-anchor="middle" x="286.426" y="-1572.7" font-family="Courier,monospace" font-size="11.00">Image</text>
</g>
<!-- \\Prismic\\Fragment\\Image&#45;&gt;\\Prismic\\Fragment\\FragmentInterface -->
<g id="edge25" class="edge"><title>\\Prismic\\Fragment\\Image&#45;&gt;\\Prismic\\Fragment\\FragmentInterface</title>
<path fill="none" stroke="black" stroke-dasharray="1,5" d="M259.341,-1569.71C247.238,-1565.6 233.508,-1559.08 224.218,-1549 132.009,-1448.98 106.161,-1278.57 99.372,-1211.41"/>
<polygon fill="none" stroke="black" points="102.831,-1210.81 98.4071,-1201.18 95.862,-1211.47 102.831,-1210.81"/>
</g>
<!-- \\Prismic\\Fragment\\BlockGroup -->
<g id="node30" class="node"><title>\\Prismic\\Fragment\\BlockGroup</title>
<polygon fill="none" stroke="black" points="706.217,-1145 624.196,-1145 624.196,-1109 706.217,-1109 706.217,-1145"/>
<text text-anchor="middle" x="665.206" y="-1123.7" font-family="Courier,monospace" font-size="11.00">BlockGroup</text>
</g>
<!-- \\Prismic\\Fragment\\Number -->
<g id="node31" class="node"><title>\\Prismic\\Fragment\\Number</title>
<polygon fill="none" stroke="black" points="314.034,-1540 258.818,-1540 258.818,-1504 314.034,-1504 314.034,-1540"/>
<text text-anchor="middle" x="286.426" y="-1518.7" font-family="Courier,monospace" font-size="11.00">Number</text>
</g>
<!-- \\Prismic\\Fragment\\Number&#45;&gt;\\Prismic\\Fragment\\FragmentInterface -->
<g id="edge31" class="edge"><title>\\Prismic\\Fragment\\Number&#45;&gt;\\Prismic\\Fragment\\FragmentInterface</title>
<path fill="none" stroke="black" stroke-dasharray="1,5" d="M258.683,-1517.53C246.866,-1514.37 233.566,-1509.01 224.218,-1500 139.463,-1418.27 109.714,-1272.59 100.633,-1211.36"/>
<polygon fill="none" stroke="black" points="104.073,-1210.69 99.2134,-1201.27 97.1416,-1211.66 104.073,-1210.69"/>
</g>
<!-- \\Prismic\\Fragment\\ParsedText -->
<g id="node32" class="node"><title>\\Prismic\\Fragment\\ParsedText</title>
<polygon fill="none" stroke="black" points="706.217,-1038 624.196,-1038 624.196,-1002 706.217,-1002 706.217,-1038"/>
<text text-anchor="middle" x="665.206" y="-1016.7" font-family="Courier,monospace" font-size="11.00">ParsedText</text>
</g>
<!-- \\Prismic\\Cache\\NoCache -->
<g id="node34" class="node"><title>\\Prismic\\Cache\\NoCache</title>
<polygon fill="none" stroke="black" points="696.414,-852 633.999,-852 633.999,-816 696.414,-816 696.414,-852"/>
<text text-anchor="middle" x="665.206" y="-830.7" font-family="Courier,monospace" font-size="11.00">NoCache</text>
</g>
<!-- \\Prismic\\Cache\\CacheInterface -->
<g id="node36" class="node"><title>\\Prismic\\Cache\\CacheInterface</title>
<polygon fill="none" stroke="black" points="525.281,-825 416.449,-825 416.449,-789 525.281,-789 525.281,-825"/>
<text text-anchor="middle" x="470.865" y="-803.7" font-family="Courier,monospace" font-size="11.00">CacheInterface</text>
</g>
<!-- \\Prismic\\Cache\\NoCache&#45;&gt;\\Prismic\\Cache\\CacheInterface -->
<g id="edge5" class="edge"><title>\\Prismic\\Cache\\NoCache&#45;&gt;\\Prismic\\Cache\\CacheInterface</title>
<path fill="none" stroke="black" stroke-dasharray="1,5" d="M633.729,-829.722C607.33,-826.016 568.28,-820.534 535.15,-815.884"/>
<polygon fill="none" stroke="black" points="535.468,-812.394 525.079,-814.47 534.495,-819.326 535.468,-812.394"/>
</g>
<!-- \\Prismic\\Cache\\DefaultCache -->
<g id="node35" class="node"><title>\\Prismic\\Cache\\DefaultCache</title>
<polygon fill="none" stroke="black" points="712.92,-798 617.493,-798 617.493,-762 712.92,-762 712.92,-798"/>
<text text-anchor="middle" x="665.206" y="-776.7" font-family="Courier,monospace" font-size="11.00">DefaultCache</text>
</g>
<!-- \\Prismic\\Cache\\DefaultCache&#45;&gt;\\Prismic\\Cache\\CacheInterface -->
<g id="edge14" class="edge"><title>\\Prismic\\Cache\\DefaultCache&#45;&gt;\\Prismic\\Cache\\CacheInterface</title>
<path fill="none" stroke="black" stroke-dasharray="1,5" d="M617.155,-786.605C592.5,-790.066 561.959,-794.353 535.25,-798.102"/>
<polygon fill="none" stroke="black" points="534.638,-794.654 525.222,-799.51 535.611,-801.586 534.638,-794.654"/>
</g>
<!-- \\Prismic\\Predicates -->
<g id="node37" class="node"><title>\\Prismic\\Predicates</title>
<polygon fill="none" stroke="black" points="706.217,-744 624.196,-744 624.196,-708 706.217,-708 706.217,-744"/>
<text text-anchor="middle" x="665.206" y="-722.7" font-family="Courier,monospace" font-size="11.00">Predicates</text>
</g>
<!-- \\Prismic\\Api -->
<g id="node38" class="node"><title>\\Prismic\\Api</title>
<polygon fill="none" stroke="black" points="692.206,-690 638.206,-690 638.206,-654 692.206,-654 692.206,-690"/>
<text text-anchor="middle" x="665.206" y="-668.7" font-family="Courier,monospace" font-size="11.00">Api</text>
</g>
<!-- \\Prismic\\Response -->
<g id="node39" class="node"><title>\\Prismic\\Response</title>
<polygon fill="none" stroke="black" points="699.515,-636 630.898,-636 630.898,-600 699.515,-600 699.515,-636"/>
<text text-anchor="middle" x="665.206" y="-614.7" font-family="Courier,monospace" font-size="11.00">Response</text>
</g>
<!-- \\Prismic\\Experiments -->
<g id="node40" class="node"><title>\\Prismic\\Experiments</title>
<polygon fill="none" stroke="black" points="709.319,-582 621.094,-582 621.094,-546 709.319,-546 709.319,-582"/>
<text text-anchor="middle" x="665.206" y="-560.7" font-family="Courier,monospace" font-size="11.00">Experiments</text>
</g>
<!-- \\Prismic\\Experiment -->
<g id="node41" class="node"><title>\\Prismic\\Experiment</title>
<polygon fill="none" stroke="black" points="706.217,-528 624.196,-528 624.196,-492 706.217,-492 706.217,-528"/>
<text text-anchor="middle" x="665.206" y="-506.7" font-family="Courier,monospace" font-size="11.00">Experiment</text>
</g>
<!-- \\Prismic\\Variation -->
<g id="node42" class="node"><title>\\Prismic\\Variation</title>
<polygon fill="none" stroke="black" points="703.117,-474 627.296,-474 627.296,-438 703.117,-438 703.117,-474"/>
<text text-anchor="middle" x="665.206" y="-452.7" font-family="Courier,monospace" font-size="11.00">Variation</text>
</g>
<!-- \\Prismic\\SearchForm -->
<g id="node43" class="node"><title>\\Prismic\\SearchForm</title>
<polygon fill="none" stroke="black" points="706.217,-420 624.196,-420 624.196,-384 706.217,-384 706.217,-420"/>
<text text-anchor="middle" x="665.206" y="-398.7" font-family="Courier,monospace" font-size="11.00">SearchForm</text>
</g>
<!-- \\Prismic\\Ref -->
<g id="node44" class="node"><title>\\Prismic\\Ref</title>
<polygon fill="none" stroke="black" points="692.206,-366 638.206,-366 638.206,-330 692.206,-330 692.206,-366"/>
<text text-anchor="middle" x="665.206" y="-344.7" font-family="Courier,monospace" font-size="11.00">Ref</text>
</g>
<!-- \\Prismic\\ApiData -->
<g id="node45" class="node"><title>\\Prismic\\ApiData</title>
<polygon fill="none" stroke="black" points="696.414,-312 633.999,-312 633.999,-276 696.414,-276 696.414,-312"/>
<text text-anchor="middle" x="665.206" y="-290.7" font-family="Courier,monospace" font-size="11.00">ApiData</text>
</g>
<!-- \\Prismic\\LinkResolver -->
<g id="node47" class="node"><title>\\Prismic\\LinkResolver</title>
<polygon fill="none" stroke="black" points="712.92,-258 617.493,-258 617.493,-222 712.92,-222 712.92,-258"/>
<text text-anchor="start" x="632.201" y="-242.2" font-family="Courier,monospace" font-size="11.00">«abstract»</text>
<text text-anchor="start" x="625.6" y="-231.2" font-family="Courier,monospace" font-size="11.00">LinkResolver</text>
</g>
<!-- \\Prismic\\Document -->
<g id="node48" class="node"><title>\\Prismic\\Document</title>
<polygon fill="none" stroke="black" points="505.174,-2049 436.556,-2049 436.556,-2013 505.174,-2013 505.174,-2049"/>
<text text-anchor="middle" x="470.865" y="-2027.7" font-family="Courier,monospace" font-size="11.00">Document</text>
</g>
<!-- \\Prismic\\Document&#45;&gt;\\Prismic\\WithFragments -->
<g id="edge19" class="edge"><title>\\Prismic\\Document&#45;&gt;\\Prismic\\WithFragments</title>
<path fill="none" stroke="black" d="M436.403,-2031C411.65,-2031 377.258,-2031 347.754,-2031"/>
<polygon fill="none" stroke="black" points="347.546,-2027.5 337.546,-2031 347.546,-2034.5 347.546,-2027.5"/>
</g>
<!-- \\Prismic\\Form -->
<g id="node49" class="node"><title>\\Prismic\\Form</title>
<polygon fill="none" stroke="black" points="692.206,-204 638.206,-204 638.206,-168 692.206,-168 692.206,-204"/>
<text text-anchor="middle" x="665.206" y="-182.7" font-family="Courier,monospace" font-size="11.00">Form</text>
</g>
<!-- \\Prismic\\FieldForm -->
<g id="node50" class="node"><title>\\Prismic\\FieldForm</title>
<polygon fill="none" stroke="black" points="703.117,-150 627.296,-150 627.296,-114 703.117,-114 703.117,-150"/>
<text text-anchor="middle" x="665.206" y="-128.7" font-family="Courier,monospace" font-size="11.00">FieldForm</text>
</g>
<!-- \\Prismic\\SimplePredicate -->
<g id="node51" class="node"><title>\\Prismic\\SimplePredicate</title>
<polygon fill="none" stroke="black" points="722.723,-96 607.69,-96 607.69,-60 722.723,-60 722.723,-96"/>
<text text-anchor="middle" x="665.206" y="-74.7" font-family="Courier,monospace" font-size="11.00">SimplePredicate</text>
</g>
<!-- \\Prismic\\Predicate -->
<g id="node52" class="node"><title>\\Prismic\\Predicate</title>
<polygon fill="none" stroke="black" points="508.776,-96 432.955,-96 432.955,-60 508.776,-60 508.776,-96"/>
<text text-anchor="middle" x="470.865" y="-74.7" font-family="Courier,monospace" font-size="11.00">Predicate</text>
</g>
<!-- \\Prismic\\SimplePredicate&#45;&gt;\\Prismic\\Predicate -->
<g id="edge30" class="edge"><title>\\Prismic\\SimplePredicate&#45;&gt;\\Prismic\\Predicate</title>
<path fill="none" stroke="black" stroke-dasharray="1,5" d="M607.538,-78C579.364,-78 545.715,-78 518.977,-78"/>
<polygon fill="none" stroke="black" points="518.723,-74.5001 508.723,-78 518.723,-81.5001 518.723,-74.5001"/>
</g>
</g>
</svg>
